<?xml version="1.0" encoding="UTF-8"?>
<svg xmlns="http://www.w3.org/2000/svg" xmlns:xlink="http://www.w3.org/1999/xlink" version="1.1" id="Capa_1" x="0px" y="0px" viewBox="0 0 512 512" style="enable-background:new 0 0 512 512;" xml:space="preserve" width="512" height="512">
<g>
	<path style="fill:#EAF6FF;" d="M19.869,51.069V342c0,5.523,4.477,10,10,10h20.94c2.973-27.058,25.961-48.182,53.797-48.182&#10;&#9;&#9;s50.825,21.124,53.797,48.182h43.799c2.973-27.058,25.961-48.182,53.797-48.182c27.837,0,50.825,21.124,53.798,48.182h43.799&#10;&#9;&#9;c2.973-27.058,25.96-48.182,53.797-48.182c27.837,0,50.825,21.124,53.798,48.182h20.94c5.523,0,10-4.477,10-10V51.069H19.869z"/>
	<g>
		<path style="fill:#D8ECFE;" d="M450.262,51.069v273.875c5.91,7.661,9.818,16.943,10.929,27.055h20.94c5.523,0,10-4.477,10-10&#10;&#9;&#9;&#9;V51.069H450.262z"/>
	</g>
	<path style="fill:none;stroke:#000000;stroke-width:15;stroke-linecap:round;stroke-linejoin:round;stroke-miterlimit:10;" d="&#10;&#9;&#9;M19.869,207v135c0,5.523,4.477,10,10,10H49.8c2.968-27.649,26.37-49.182,54.807-49.182c28.438,0,51.839,21.533,54.807,49.182&#10;&#9;&#9;h41.779c2.968-27.649,26.37-49.182,54.807-49.182c28.438,0,51.839,21.533,54.807,49.182h41.78&#10;&#9;&#9;c2.968-27.649,26.369-49.182,54.807-49.182s51.839,21.533,54.807,49.182h19.931c5.523,0,10-4.477,10-10V52.069H19.869V172"/>
	<path style="fill:#978ECB;" d="M494.5,19.46h-477c-5.523,0-10,4.477-10,10v12.609c0,5.523,4.477,10,10,10h477&#10;&#9;&#9;c5.523,0,10-4.477,10-10V29.46C504.5,23.938,500.023,19.46,494.5,19.46z"/>
	<path style="fill:#8379C1;" d="M494.5,19.46H444c5.523,0,10,4.477,10,10v12.609c0,5.523-4.477,10-10,10h50.5&#10;&#9;&#9;c5.523,0,10-4.477,10-10V29.46C504.5,23.938,500.023,19.46,494.5,19.46z"/>
	<path style="fill:none;stroke:#000000;stroke-width:15;stroke-linecap:round;stroke-linejoin:round;stroke-miterlimit:10;" d="&#10;&#9;&#9;M390,19.46H17.5c-5.523,0-10,4.477-10,10v12.609c0,5.523,4.477,10,10,10h477c5.523,0,10-4.477,10-10V29.46c0-5.523-4.477-10-10-10&#10;&#9;&#9;H425"/>
	<g>
		<g>
			<g>
				<path style="fill:#0ED290;" d="M474.543,423.423l-40.65-18.449c-7.835,4.433-16.873,6.977-26.5,6.977&#10;&#9;&#9;&#9;&#9;&#9;c-9.626,0-18.664-2.543-26.499-6.976l-40.65,18.449c-3.545,1.609-6.658,3.865-9.253,6.576&#10;&#9;&#9;&#9;&#9;&#9;c5.483,5.365,8.746,12.799,8.746,20.721v41.82h137.394c8.284,0,15-6.716,15-15v-26.82&#10;&#9;&#9;&#9;&#9;&#9;C492.131,438.958,485.253,428.284,474.543,423.423z"/>
				<path style="fill:#0ED290;" d="M474.543,423.423l-40.65-18.449c-7.835,4.433-16.873,6.977-26.5,6.977&#10;&#9;&#9;&#9;&#9;&#9;c-9.626,0-18.664-2.543-26.499-6.976l-40.65,18.449c-3.545,1.609-6.658,3.865-9.253,6.576&#10;&#9;&#9;&#9;&#9;&#9;c5.483,5.365,8.746,12.799,8.746,20.721v41.82h137.394c8.284,0,15-6.716,15-15v-26.82&#10;&#9;&#9;&#9;&#9;&#9;C492.131,438.958,485.253,428.284,474.543,423.423z"/>
				<g>
					<path style="fill:#00C285;" d="M474.543,423.423l-40.65-18.449c-7.835,4.433-16.873,6.977-26.5,6.977&#10;&#9;&#9;&#9;&#9;&#9;&#9;c-2.029,0-4.03-0.12-6.001-0.339l35.738,16.219c11.963,5.43,19.646,17.354,19.646,30.492v34.217h20.354c8.284,0,15-6.716,15-15&#10;&#9;&#9;&#9;&#9;&#9;&#9;v-26.82C492.131,438.958,485.253,428.284,474.543,423.423z"/>
				</g>
				<path style="fill:none;stroke:#000000;stroke-width:15;stroke-linecap:round;stroke-linejoin:round;stroke-miterlimit:10;" d="&#10;&#9;&#9;&#9;&#9;&#9;M408,492.54h69.131c8.284,0,15-6.716,15-15v-26.82c0-11.761-6.878-22.436-17.588-27.297l-39.362-17.864&#10;&#9;&#9;&#9;&#9;&#9;c-8.161,4.774-17.651,7.522-27.788,7.522s-19.627-2.748-27.788-7.522l-39.362,17.864c-3.228,1.465-6.099,3.465-8.547,5.857&#10;&#9;&#9;&#9;&#9;&#9;c5.676,5.544,9.041,13.223,9.041,21.44v41.82H373"/>
				
					<ellipse transform="matrix(0.3827 -0.9239 0.9239 0.3827 -79.2112 597.3506)" style="fill:#05E39C;" cx="407.394" cy="357.949" rx="55.131" ry="55.131"/>
				<path style="fill:#0ED290;" d="M407.394,302.818c-5.431,0-10.674,0.798-15.631,2.262c22.832,6.74,39.5,27.853,39.5,52.869&#10;&#9;&#9;&#9;&#9;&#9;c0,25.017-16.668,46.129-39.5,52.87c4.957,1.463,10.2,2.262,15.631,2.262c30.448,0,55.131-24.683,55.131-55.131&#10;&#9;&#9;&#9;&#9;&#9;S437.842,302.818,407.394,302.818z"/>
			</g>
		</g>
		<g>
			<g>
				<path style="fill:#0ED290;" d="M172.262,450.72c0-7.921,3.263-15.356,8.747-20.721c-2.595-2.711-5.708-4.967-9.253-6.576&#10;&#9;&#9;&#9;&#9;&#9;l-40.65-18.449c-7.835,4.433-16.873,6.977-26.5,6.977c-9.626,0-18.664-2.543-26.499-6.976l-40.65,18.449&#10;&#9;&#9;&#9;&#9;&#9;c-10.71,4.861-17.588,15.535-17.588,27.297v26.82c0,8.284,6.716,15,15,15h137.393V450.72z"/>
				<g>
					<path style="fill:#00C285;" d="M171.756,423.423l-40.65-18.449c-7.835,4.433-16.873,6.977-26.5,6.977&#10;&#9;&#9;&#9;&#9;&#9;&#9;c-2.97,0-5.884-0.244-8.724-0.709l36.471,16.552c11.964,5.43,19.647,17.354,19.647,30.492v34.254h20.262v-41.82&#10;&#9;&#9;&#9;&#9;&#9;&#9;c0-7.921,3.263-15.356,8.747-20.721C178.414,427.288,175.301,425.032,171.756,423.423z"/>
				</g>
				<path style="fill:none;stroke:#000000;stroke-width:15;stroke-linecap:round;stroke-linejoin:round;stroke-miterlimit:10;" d="&#10;&#9;&#9;&#9;&#9;&#9;M171.756,423.423l-39.362-17.864c-8.161,4.774-17.651,7.522-27.788,7.522c-10.137,0-19.627-2.748-27.788-7.522l-39.362,17.864&#10;&#9;&#9;&#9;&#9;&#9;c-10.71,4.861-17.588,15.535-17.588,27.297v26.82c0,8.284,6.716,15,15,15h136.393v-41.82c0-8.217,3.365-15.896,9.041-21.44&#10;&#9;&#9;&#9;&#9;&#9;C177.855,426.888,174.984,424.888,171.756,423.423z"/>
				
					<ellipse transform="matrix(0.3827 -0.9239 0.9239 0.3827 -266.1267 317.6119)" style="fill:#05E39C;" cx="104.607" cy="357.949" rx="55.131" ry="55.131"/>
				<path style="fill:#0ED290;" d="M104.607,302.818c-5.47,0-10.749,0.809-15.738,2.292c22.778,6.775,39.394,27.861,39.394,52.839&#10;&#9;&#9;&#9;&#9;&#9;s-16.616,46.065-39.394,52.839c4.988,1.484,10.267,2.292,15.738,2.292c30.448,0,55.131-24.683,55.131-55.131&#10;&#9;&#9;&#9;&#9;&#9;S135.055,302.818,104.607,302.818z"/>
			</g>
		</g>
		<g>
			<g>
				<path style="fill:#8AC9FE;" d="M323.15,423.423l-40.65-18.449c-7.835,4.433-16.873,6.977-26.5,6.977&#10;&#9;&#9;&#9;&#9;&#9;c-9.626,0-18.664-2.544-26.499-6.976l-40.65,18.449c-10.71,4.861-17.588,15.536-17.588,27.297v41.819h169.475v-41.82&#10;&#9;&#9;&#9;&#9;&#9;C340.738,438.958,333.86,428.284,323.15,423.423z"/>
				<g>
					<path style="fill:#60B7FF;" d="M323.15,423.423l-40.65-18.449c-7.835,4.433-16.873,6.977-26.5,6.977&#10;&#9;&#9;&#9;&#9;&#9;&#9;c-2.029,0-4.03-0.12-6.001-0.339l35.738,16.219c11.964,5.43,19.647,17.354,19.647,30.492v34.217h35.354v-41.82&#10;&#9;&#9;&#9;&#9;&#9;&#9;C340.738,438.958,333.86,428.284,323.15,423.423z"/>
				</g>
				<path style="fill:none;stroke:#000000;stroke-width:15;stroke-linecap:round;stroke-linejoin:round;stroke-miterlimit:10;" d="&#10;&#9;&#9;&#9;&#9;&#9;M323.15,423.423l-39.362-17.864c-8.161,4.774-17.651,7.522-27.788,7.522c-10.137,0-19.627-2.748-27.788-7.522l-39.362,17.864&#10;&#9;&#9;&#9;&#9;&#9;c-10.71,4.861-17.588,15.535-17.588,27.297v41.82h169.476v-41.82C340.738,438.958,333.86,428.284,323.15,423.423z"/>
				
					<ellipse transform="matrix(0.3827 -0.9239 0.9239 0.3827 -172.6689 457.4813)" style="fill:#B3DAFE;" cx="256" cy="357.949" rx="55.131" ry="55.131"/>
				<path style="fill:#8AC9FE;" d="M256,302.818c-5.408,0-10.628,0.792-15.566,2.243C263.3,311.781,280,332.909,280,357.949&#10;&#9;&#9;&#9;&#9;&#9;s-16.7,46.168-39.566,52.888c4.938,1.451,10.158,2.243,15.566,2.243c30.448,0,55.131-24.683,55.131-55.131&#10;&#9;&#9;&#9;&#9;&#9;S286.448,302.818,256,302.818z"/>
				
					<ellipse transform="matrix(0.3827 -0.9239 0.9239 0.3827 -79.2112 597.3506)" style="fill:none;stroke:#000000;stroke-width:15;stroke-linecap:round;stroke-linejoin:round;stroke-miterlimit:10;" cx="407.394" cy="357.949" rx="55.131" ry="55.131"/>
				
					<ellipse transform="matrix(0.3827 -0.9239 0.9239 0.3827 -266.1267 317.6119)" style="fill:none;stroke:#000000;stroke-width:15;stroke-linecap:round;stroke-linejoin:round;stroke-miterlimit:10;" cx="104.607" cy="357.949" rx="55.131" ry="55.131"/>
				
					<ellipse transform="matrix(0.3827 -0.9239 0.9239 0.3827 -172.6689 457.4813)" style="fill:none;stroke:#000000;stroke-width:15;stroke-linecap:round;stroke-linejoin:round;stroke-miterlimit:10;" cx="256" cy="357.949" rx="55.131" ry="55.131"/>
			</g>
		</g>
	</g>
	<g>
		<g>
			<path style="fill:#05E39C;" d="M189.729,147.02c-2.206,0-4-1.794-4-4v-26.273c-12.403-7.605-26.989-11.996-42.604-11.996&#10;&#9;&#9;&#9;&#9;c-45.08,0-81.625,36.545-81.625,81.625c0,45.08,36.545,81.625,81.625,81.625s81.625-36.545,81.625-81.625&#10;&#9;&#9;&#9;&#9;c0-14.272-3.672-27.683-10.11-39.356H189.729z"/>
			<path style="fill:#0ED290;" d="M214.64,147.02h-24.911c-2.206,0-4-1.794-4-4v-26.273c-12.403-7.605-26.989-11.996-42.604-11.996&#10;&#9;&#9;&#9;&#9;c-5.39,0-10.652,0.536-15.75,1.533c37.541,7.341,65.875,40.401,65.875,80.091c0,39.69-28.333,72.75-65.875,80.092&#10;&#9;&#9;&#9;&#9;c5.098,0.997,10.36,1.533,15.75,1.533c45.08,0,81.625-36.545,81.625-81.625C224.749,172.103,221.077,158.692,214.64,147.02z"/>
			<path style="fill:#FE646F;" d="M61.5,186.375c0,45.08,36.545,81.625,81.625,81.625s81.625-36.545,81.625-81.625h-81.625v-81.625&#10;&#9;&#9;&#9;&#9;C98.045,104.751,61.5,141.295,61.5,186.375z"/>
			<g>
				<path style="fill:#FD4755;" d="M193.249,186.375c0,39.69-28.333,72.75-65.875,80.092c5.098,0.997,10.36,1.533,15.75,1.533&#10;&#9;&#9;&#9;&#9;&#9;c45.08,0,81.625-36.545,81.625-81.625H193.249z"/>
			</g>
			<path style="fill:none;stroke:#000000;stroke-width:15;stroke-linecap:round;stroke-linejoin:round;stroke-miterlimit:10;" d="&#10;&#9;&#9;&#9;&#9;M189.729,148.02c-2.761,0-5-2.239-5-5v-26.866c-12.185-7.235-26.405-11.402-41.604-11.402c-45.08,0-81.625,36.545-81.625,81.625&#10;&#9;&#9;&#9;&#9;c0,45.08,36.545,81.625,81.625,81.625s81.625-36.545,81.625-81.625c0-13.867-3.469-26.919-9.569-38.356H189.729z"/>
			
				<polyline style="fill:none;stroke:#000000;stroke-width:15;stroke-linecap:round;stroke-linejoin:round;stroke-miterlimit:10;" points="&#10;&#9;&#9;&#9;&#9;224.749,186.375 143.125,186.375 143.125,104.751 &#9;&#9;&#9;"/>
		</g>
		<g>
			<path style="fill:#FFD15B;" d="M292.172,148.02H189.729c-2.761,0-5-2.239-5-5V98.047c0-2.761,2.239-5,5-5h102.443&#10;&#9;&#9;&#9;&#9;c2.761,0,5,2.239,5,5v44.972C297.172,145.781,294.934,148.02,292.172,148.02z"/>
			<path style="fill:#FFC344;" d="M292.172,93.047H261c2.761,0,5,2.239,5,5v44.972c0,2.761-2.239,5-5,5h31.172c2.761,0,5-2.239,5-5&#10;&#9;&#9;&#9;&#9;V98.047C297.172,95.286,294.934,93.047,292.172,93.047z"/>
			<path style="fill:none;stroke:#000000;stroke-width:15;stroke-linecap:round;stroke-linejoin:round;stroke-miterlimit:10;" d="&#10;&#9;&#9;&#9;&#9;M292.172,148.02H189.729c-2.761,0-5-2.239-5-5V98.047c0-2.761,2.239-5,5-5h102.443c2.761,0,5,2.239,5,5v44.972&#10;&#9;&#9;&#9;&#9;C297.172,145.781,294.934,148.02,292.172,148.02z"/>
			
				<line style="fill:none;stroke:#000000;stroke-width:15;stroke-linecap:round;stroke-linejoin:round;stroke-miterlimit:10;" x1="214.714" y1="120.533" x2="267.187" y2="120.533"/>
		</g>
		<g>
			<g>
				<g>
					
						<line style="fill:none;stroke:#000000;stroke-width:15;stroke-linecap:round;stroke-linejoin:round;stroke-miterlimit:10;" x1="256.213" y1="187.5" x2="267.832" y2="187.5"/>
				</g>
				<g>
					
						<line style="fill:none;stroke:#000000;stroke-width:15;stroke-linecap:round;stroke-linejoin:round;stroke-miterlimit:10;" x1="256.213" y1="222.477" x2="267.832" y2="222.477"/>
				</g>
				<g>
					
						<line style="fill:none;stroke:#000000;stroke-width:15;stroke-linecap:round;stroke-linejoin:round;stroke-miterlimit:10;" x1="256.213" y1="257.455" x2="267.832" y2="257.455"/>
				</g>
			</g>
			<g>
				<g>
					
						<line style="fill:none;stroke:#000000;stroke-width:15;stroke-linecap:round;stroke-linejoin:round;stroke-miterlimit:10;" x1="297.408" y1="187.5" x2="450.5" y2="187.5"/>
				</g>
				<g>
					
						<line style="fill:none;stroke:#000000;stroke-width:15;stroke-linecap:round;stroke-linejoin:round;stroke-miterlimit:10;" x1="297.408" y1="222.477" x2="395.5" y2="222.477"/>
				</g>
				<g>
					
						<line style="fill:none;stroke:#000000;stroke-width:15;stroke-linecap:round;stroke-linejoin:round;stroke-miterlimit:10;" x1="297.408" y1="257.455" x2="450.5" y2="257.455"/>
				</g>
			</g>
		</g>
		<g>
			
				<line style="fill:none;stroke:#000000;stroke-width:15;stroke-linecap:round;stroke-linejoin:round;stroke-miterlimit:10;" x1="450.5" y1="135.533" x2="389.136" y2="135.533"/>
			
				<line style="fill:none;stroke:#000000;stroke-width:15;stroke-linecap:round;stroke-linejoin:round;stroke-miterlimit:10;" x1="389.136" y1="105.533" x2="450.5" y2="105.533"/>
		</g>
		
			<line style="fill:none;stroke:#000000;stroke-width:15;stroke-linecap:round;stroke-linejoin:round;stroke-miterlimit:10;" x1="417.5" y1="222.477" x2="450.5" y2="222.477"/>
	</g>
</g>















</svg>
